<svg xmlns="http://www.w3.org/2000/svg" width="800" height="192" class="svgbob">
  <style>.svgbob line, .svgbob path, .svgbob circle, .svgbob rect, .svgbob polygon {
  stroke: #ddd;
  stroke-width: 2;
  stroke-opacity: 1;
  fill-opacity: 1;
  stroke-linecap: round;
  stroke-linejoin: miter;
}

.svgbob text {
  white-space: pre;
  fill: #ddd;
  font-family: Iosevka Fixed, monospace;
  font-size: 14px;
}

.svgbob rect.backdrop {
  stroke: none;
  fill: #111;
}

.svgbob .broken {
  stroke-dasharray: 8;
}

.svgbob .filled {
  fill: #ddd;
}

.svgbob .bg_filled {
  fill: #111;
  stroke-width: 1;
}

.svgbob .nofill {
  fill: #111;
}

.svgbob .end_marked_arrow {
  marker-end: url(#arrow);
}

.svgbob .start_marked_arrow {
  marker-start: url(#arrow);
}

.svgbob .end_marked_diamond {
  marker-end: url(#diamond);
}

.svgbob .start_marked_diamond {
  marker-start: url(#diamond);
}

.svgbob .end_marked_circle {
  marker-end: url(#circle);
}

.svgbob .start_marked_circle {
  marker-start: url(#circle);
}

.svgbob .end_marked_open_circle {
  marker-end: url(#open_circle);
}

.svgbob .start_marked_open_circle {
  marker-start: url(#open_circle);
}

.svgbob .end_marked_big_open_circle {
  marker-end: url(#big_open_circle);
}

.svgbob .start_marked_big_open_circle {
  marker-start: url(#big_open_circle);
}

</style>
  <defs>
    <marker id="arrow" viewBox="-2 -2 8 8" refX="4" refY="2" markerWidth="7" markerHeight="7" orient="auto-start-reverse">
      <polygon points="0,0 0,4 4,2 0,0"></polygon>
    </marker>
    <marker id="diamond" viewBox="-2 -2 8 8" refX="4" refY="2" markerWidth="7" markerHeight="7" orient="auto-start-reverse">
      <polygon points="0,2 2,0 4,2 2,4 0,2"></polygon>
    </marker>
    <marker id="circle" viewBox="0 0 8 8" refX="4" refY="4" markerWidth="7" markerHeight="7" orient="auto-start-reverse">
      <circle cx="4" cy="4" r="2" class="filled"></circle>
    </marker>
    <marker id="open_circle" viewBox="0 0 8 8" refX="4" refY="4" markerWidth="7" markerHeight="7" orient="auto-start-reverse">
      <circle cx="4" cy="4" r="2" class="bg_filled"></circle>
    </marker>
    <marker id="big_open_circle" viewBox="0 0 8 8" refX="4" refY="4" markerWidth="7" markerHeight="7" orient="auto-start-reverse">
      <circle cx="4" cy="4" r="3" class="bg_filled"></circle>
    </marker>
  </defs>
  <rect class="backdrop" x="0" y="0" width="800" height="192"></rect>
  <rect x="4" y="8" width="264" height="160" class="solid nofill" rx="0"></rect>
  <rect x="20" y="72" width="80" height="32" class="solid nofill" rx="0"></rect>
  <text x="34" y="92" >Grafana</text>
  <text x="18" y="28" >Server</text>
  <text x="154" y="92" >Prometheus</text>
  <line x1="268" y1="80" x2="268" y2="96" class="solid"></line>
  <line x1="112" y1="88" x2="120" y2="88" class="solid"></line>
  <polygon points="120,84 128,88 120,92" class="filled"></polygon>
  <rect x="292" y="8" width="496" height="160" class="solid nofill" rx="0"></rect>
  <rect x="316" y="40" width="64" height="96" class="solid nofill" rx="0"></rect>
  <text x="330" y="92" >nginx</text>
  <rect x="428" y="40" width="152" height="32" class="solid nofill" rx="0"></rect>
  <text x="442" y="60" >Unbound</text>
  <text x="506" y="60" >Exporter</text>
  <rect x="692" y="40" width="80" height="32" class="solid nofill" rx="0"></rect>
  <text x="706" y="60" >Unbound</text>
  <rect x="428" y="104" width="152" height="32" class="solid nofill" rx="0"></rect>
  <text x="442" y="124" >Kea</text>
  <text x="474" y="124" >Exporter</text>
  <rect x="692" y="104" width="80" height="32" class="solid nofill" rx="0"></rect>
  <text x="706" y="124" >Kea</text>
  <text x="314" y="28" >Router</text>
  <line x1="292" y1="80" x2="292" y2="96" class="solid"></line>
  <polygon points="304,84 312,88 304,92" class="filled"></polygon>
  <line x1="392" y1="56" x2="408" y2="56" class="solid"></line>
  <polygon points="408,52 416,56 408,60" class="filled"></polygon>
  <line x1="592" y1="56" x2="608" y2="56" class="solid"></line>
  <text x="610" y="60" >socket</text>
  <line x1="664" y1="56" x2="672" y2="56" class="solid"></line>
  <polygon points="672,52 680,56 672,60" class="filled"></polygon>
  <line x1="392" y1="120" x2="408" y2="120" class="solid"></line>
  <polygon points="408,116 416,120 408,124" class="filled"></polygon>
  <line x1="592" y1="120" x2="608" y2="120" class="solid"></line>
  <text x="610" y="124" >socket</text>
  <line x1="664" y1="120" x2="672" y2="120" class="solid"></line>
  <polygon points="672,116 680,120 672,124" class="filled"></polygon>
  <g>
    <line x1="140" y1="72" x2="244" y2="72" class="solid"></line>
    <line x1="140" y1="72" x2="140" y2="104" class="solid"></line>
    <line x1="244" y1="72" x2="244" y2="104" class="solid"></line>
    <line x1="244" y1="88" x2="304" y2="88" class="solid"></line>
    <line x1="140" y1="104" x2="244" y2="104" class="solid"></line>
  </g>
</svg>
